<?xml version="1.0" standalone="no"?>
<!DOCTYPE svg PUBLIC "-//W3C//DTD SVG 20010904//EN"
 "http://www.w3.org/TR/2001/REC-SVG-20010904/DTD/svg10.dtd">
<svg version="1.0" xmlns="http://www.w3.org/2000/svg"
 width="960.000000pt" height="960.000000pt" viewBox="0 0 960.000000 960.000000"
 preserveAspectRatio="xMidYMid meet">
<metadata>
Created by potrace 1.14, written by Peter Selinger 2001-2017
</metadata>
<g transform="translate(0.000000,960.000000) scale(0.100000,-0.100000)"
fill="#000000" stroke="none">
<path d="M2577 9114 c-1 -1 -49 -5 -106 -8 -57 -3 -113 -8 -125 -11 -11 -2
-40 -6 -63 -9 -22 -3 -52 -8 -65 -10 -12 -3 -34 -8 -48 -10 -196 -34 -447
-120 -670 -229 -80 -39 -147 -74 -150 -77 -3 -4 -21 -15 -40 -26 -19 -10 -37
-21 -40 -24 -3 -3 -32 -22 -65 -44 -65 -42 -164 -114 -180 -130 -5 -6 -32 -29
-60 -50 -57 -45 -272 -261 -325 -326 -19 -23 -65 -84 -102 -134 -37 -50 -73
-97 -78 -103 -6 -7 -7 -13 -3 -13 4 0 3 -4 -3 -8 -27 -18 -244 -416 -244 -447
0 -4 -6 -21 -14 -38 -8 -18 -27 -66 -41 -107 -24 -67 -30 -87 -38 -125 -2 -5
-5 -14 -9 -20 -3 -5 -9 -26 -13 -45 -4 -19 -10 -39 -13 -45 -3 -5 -7 -16 -7
-25 -1 -8 -8 -42 -15 -75 -7 -33 -14 -69 -16 -80 -1 -11 -3 -20 -4 -20 -2 0
-7 -25 -14 -80 -3 -27 -10 -75 -14 -105 -4 -30 -7 -165 -7 -300 0 -218 4 -303
21 -405 2 -16 5 -37 5 -45 1 -8 6 -33 11 -55 6 -22 12 -51 13 -65 10 -79 65
-265 120 -410 58 -149 68 -173 124 -280 30 -58 59 -115 65 -127 6 -13 14 -23
19 -23 4 0 7 -5 7 -10 0 -14 143 -229 185 -277 5 -7 15 -18 20 -25 68 -89 115
-139 515 -548 69 -70 258 -264 420 -430 162 -166 356 -364 430 -440 415 -424
714 -731 830 -850 73 -74 258 -265 413 -423 155 -159 347 -355 427 -437 979
-1003 978 -1003 1034 -1029 75 -34 159 -38 242 -11 66 22 73 29 243 200 97 98
250 254 341 348 146 150 494 506 935 957 80 83 264 271 408 418 144 148 316
324 382 392 66 67 146 150 178 184 32 33 63 61 68 61 5 0 9 3 9 8 0 4 81 90
180 192 100 102 299 306 443 454 144 148 332 339 417 426 267 272 394 405 435
456 21 27 42 51 46 54 9 7 106 137 138 184 33 50 39 59 81 131 19 33 40 69 47
80 30 51 123 248 123 261 0 8 5 14 10 14 6 0 10 6 10 14 0 8 9 36 21 63 20 47
86 255 94 297 2 12 4 22 6 24 2 3 4 9 14 62 5 25 9 47 10 50 9 41 16 73 21
110 4 25 8 56 10 70 23 144 25 720 4 720 -4 0 -6 10 -6 23 -1 12 -4 38 -8 57
-4 19 -8 46 -10 60 -13 109 -92 390 -149 530 -6 14 -11 27 -12 30 -30 88 -197
409 -217 418 -5 2 -8 8 -8 13 0 6 -24 44 -52 86 -29 42 -57 83 -63 92 -5 8
-15 20 -21 26 -5 5 -28 33 -49 60 -22 28 -51 64 -65 80 -40 47 -231 236 -284
280 -27 22 -65 55 -86 73 -21 17 -42 32 -48 32 -6 0 -12 4 -14 9 -4 11 -216
148 -288 187 -30 16 -56 32 -58 37 -2 4 -10 7 -17 7 -8 0 -30 9 -49 21 -20 12
-36 17 -36 12 0 -4 -4 -3 -8 4 -16 25 -343 144 -492 178 -243 55 -371 69 -625
70 -164 0 -298 -7 -350 -18 -11 -3 -42 -8 -70 -11 -27 -4 -57 -9 -65 -11 -8
-2 -28 -7 -45 -9 -16 -3 -45 -10 -63 -15 -18 -5 -35 -10 -37 -10 -3 -1 -6 -1
-7 -2 -2 0 -13 -2 -24 -4 -12 -3 -59 -17 -105 -31 -46 -15 -88 -29 -94 -30
-40 -9 -232 -91 -325 -138 -128 -64 -302 -173 -401 -251 -78 -60 -94 -73 -132
-105 -23 -19 -122 -116 -219 -214 l-178 -179 -167 169 c-231 232 -411 377
-623 501 -54 32 -270 142 -270 138 0 -2 -25 7 -57 21 -31 14 -90 36 -132 50
-42 14 -84 29 -93 35 -10 5 -26 9 -35 9 -10 0 -37 7 -61 15 -24 9 -48 13 -53
10 -5 -4 -9 -2 -9 3 0 5 -6 9 -12 9 -7 0 -38 5 -68 12 -89 18 -103 21 -150 27
-25 3 -56 7 -70 9 -73 13 -413 28 -423 19z m294 -648 c121 -13 241 -35 329
-61 8 -2 35 -9 60 -15 24 -6 58 -17 75 -24 16 -7 68 -28 114 -46 46 -18 122
-54 170 -80 242 -130 313 -189 686 -565 356 -359 357 -359 495 -360 136 0 136
-1 520 386 184 185 345 340 358 343 12 4 22 11 22 16 0 5 16 18 35 30 20 12
41 27 48 34 44 42 373 216 408 216 8 0 19 4 24 9 22 21 275 90 388 106 27 3
59 9 70 12 36 9 406 11 451 2 22 -4 68 -11 101 -14 33 -4 70 -11 83 -16 12 -5
22 -7 22 -5 0 4 79 -16 185 -47 47 -14 135 -46 180 -67 89 -40 201 -94 205
-99 3 -3 21 -15 40 -25 19 -11 59 -36 89 -55 29 -20 61 -40 69 -46 9 -5 21
-14 28 -20 6 -5 22 -18 35 -29 360 -287 615 -682 730 -1130 28 -107 30 -116
35 -151 2 -16 6 -41 8 -55 12 -72 16 -116 22 -235 3 -71 6 -134 6 -140 0 -24
-13 -192 -17 -215 -2 -14 -7 -47 -11 -75 -3 -27 -11 -58 -16 -69 -6 -12 -6
-16 0 -12 5 3 1 -25 -10 -62 -35 -120 -80 -265 -91 -291 -5 -14 -11 -28 -12
-31 -13 -38 -91 -196 -132 -268 -60 -105 -187 -277 -254 -344 -21 -21 -36 -38
-34 -38 1 0 -68 -72 -154 -159 -137 -140 -351 -359 -851 -871 -74 -76 -264
-270 -422 -432 -157 -161 -341 -349 -408 -418 -67 -69 -241 -246 -386 -395
-547 -561 -626 -641 -889 -911 -148 -152 -316 -323 -373 -381 l-102 -104 -179
183 c-99 101 -239 244 -311 318 -73 74 -258 265 -413 423 -155 159 -334 342
-397 407 -115 117 -629 644 -915 936 -83 85 -150 154 -150 154 0 0 -87 89
-193 198 -106 108 -305 312 -442 452 -137 140 -322 330 -412 421 -173 177
-206 213 -279 299 -56 67 -159 216 -159 230 0 5 -4 10 -9 10 -5 0 -11 8 -14
18 -3 9 -24 49 -45 89 -34 62 -59 116 -113 249 -7 16 -13 35 -15 42 -1 8 -6
21 -10 30 -8 20 -6 11 -39 137 -15 55 -29 114 -30 130 -4 28 -8 55 -21 115
-25 125 -19 464 11 630 3 19 8 49 11 65 11 69 67 264 100 349 177 454 480 812
899 1063 49 29 207 104 280 133 76 30 319 101 333 98 4 -1 21 1 37 5 55 12 90
17 175 23 47 3 86 7 87 8 5 4 226 -2 284 -8z"/>
</g>
</svg>
