<svg xmlns="http://www.w3.org/2000/svg" fill="none" viewBox="0 0 160 50">
  <path fill="#000" d="M0 49.51V.49h7.24v44.05h18.57v4.97H0ZM40 12.32c0-3.78 1.21-6.76 3.63-8.96C46.1 1.12 49.85 0 54.86 0c5.01 0 8.76 1.12 11.23 3.36 2.48 2.2 3.72 5.18 3.72 8.96v25.36c0 3.73-1.24 6.72-3.72 8.96C63.62 48.88 59.87 50 54.86 50c-5.01 0-8.76-1.12-11.23-3.36C41.2 44.4 40 41.4 40 37.68V12.32Zm7.15 25.64c0 2.24.62 3.99 1.86 5.25 1.3 1.21 3.25 1.82 5.85 1.82 2.66 0 4.61-.6 5.85-1.82 1.24-1.26 1.86-3.01 1.86-5.25V12.04c0-2.24-.62-3.96-1.86-5.18-1.24-1.26-3.19-1.89-5.85-1.89-2.6 0-4.55.63-5.85 1.9-1.24 1.2-1.86 2.93-1.86 5.17v25.92ZM99.95 0c5.01 0 8.7 1.12 11.05 3.36 2.41 2.24 3.62 5.23 3.62 8.96v4.2h-6.87v-4.48c0-2.24-.62-3.96-1.86-5.18-1.17-1.26-3.1-1.89-5.75-1.89-2.6 0-4.52.63-5.76 1.9-1.24 1.2-1.86 2.93-1.86 5.17v25.92c0 2.24.62 3.99 1.86 5.25 1.24 1.21 3.16 1.82 5.76 1.82 2.66 0 4.58-.6 5.75-1.82 1.24-1.26 1.86-3.01 1.86-5.25v-9.8h-6.69v-4.91h13.56v14.43c0 3.73-1.2 6.72-3.62 8.96-2.35 2.24-6.04 3.36-11.05 3.36-4.95 0-8.63-1.12-11.05-3.36-2.35-2.24-3.53-5.23-3.53-8.96V12.32c0-1.86.28-3.54.84-5.04a10.56 10.56 0 0 1 2.7-3.92A12.54 12.54 0 0 1 93.44.91c1.86-.6 4.02-.91 6.5-.91ZM130.2 12.32c0-3.78 1.2-6.76 3.62-8.96C136.29 1.12 140.04 0 145.05 0c5.02 0 8.76 1.12 11.24 3.36 2.47 2.2 3.71 5.18 3.71 8.96v25.36c0 3.73-1.24 6.72-3.71 8.96-2.48 2.24-6.22 3.36-11.24 3.36-5.01 0-8.76-1.12-11.23-3.36-2.41-2.24-3.62-5.23-3.62-8.96V12.32Zm7.15 25.64c0 2.24.62 3.99 1.85 5.25 1.3 1.21 3.25 1.82 5.85 1.82 2.66 0 4.61-.6 5.85-1.82 1.24-1.26 1.86-3.01 1.86-5.25V12.04c0-2.24-.62-3.96-1.86-5.18-1.24-1.26-3.19-1.89-5.85-1.89-2.6 0-4.55.63-5.85 1.9-1.23 1.2-1.85 2.93-1.85 5.17v25.92Z"/>
</svg>
